<svg width="92" height="27" viewBox="0 0 92 27" fill="none" xmlns="http://www.w3.org/2000/svg">
<path fill-rule="evenodd" clip-rule="evenodd" d="M1.73871e-08 13.8978C0 13.5 0.158013 13.1185 0.439278 12.8373C0.720543 12.556 1.10202 12.398 1.49979 12.398L86.5284 12.0002L77.0887 2.56353C76.8071 2.28191 76.6489 1.89995 76.6489 1.50168C76.6489 1.10341 76.8071 0.721451 77.0887 0.439829C77.3703 0.158209 77.7523 -5.30601e-06 78.1505 -5.32342e-06C78.5488 -5.34083e-06 78.9308 0.158209 79.2124 0.439829L91.2107 12.4381C91.3504 12.5775 91.4612 12.743 91.5368 12.9252C91.6124 13.1074 91.6513 13.3027 91.6513 13.5C91.6513 13.6973 91.6124 13.8926 91.5368 14.0748C91.4612 14.257 91.3504 14.4225 91.2107 14.5618L79.2124 26.5602C78.9308 26.8418 78.5488 27 78.1505 27C77.7523 27 77.3703 26.8418 77.0887 26.5602C76.8071 26.2785 76.6489 25.8966 76.6489 25.4983C76.6489 25.1 76.8071 24.7181 77.0887 24.4365L86.5284 14.9998L1.49979 15.3976C1.10202 15.3976 0.720543 15.2395 0.439278 14.9583C0.158013 14.677 3.47742e-08 14.2955 1.73871e-08 13.8978Z" fill="black"/>
</svg>
