<?xml version="1.0" standalone="no"?>
<!DOCTYPE svg PUBLIC "-//W3C//DTD SVG 20010904//EN"
 "http://www.w3.org/TR/2001/REC-SVG-20010904/DTD/svg10.dtd">
<svg version="1.0" xmlns="http://www.w3.org/2000/svg"
 width="1144.000000pt" height="1280.000000pt" viewBox="0 0 1144.000000 1280.000000"
 preserveAspectRatio="xMidYMid meet">
<metadata>
Created by potrace 1.15, written by Peter Selinger 2001-2017
</metadata>
<g transform="translate(0.000000,1280.000000) scale(0.100000,-0.100000)"
fill="#000000" stroke="none">
<path d="M5031 12759 c-942 -34 -1901 -149 -2921 -350 -561 -111 -1522 -344
-2002 -486 -19 -6 -23 -41 -38 -303 -40 -680 -32 -1454 21 -2105 79 -982 260
-1944 538 -2857 12 -38 29 -96 40 -130 32 -108 139 -423 193 -566 136 -366
324 -806 341 -795 6 4 7 1 2 -7 -9 -14 44 -132 57 -124 4 3 5 -1 2 -9 -12 -31
345 -708 567 -1073 913 -1508 2077 -2720 3634 -3784 227 -155 265 -174 315
-160 35 10 275 170 525 348 810 580 1562 1267 2203 2010 323 376 690 868 959
1287 104 163 254 409 272 445 18 39 0 12 -147 -225 -140 -225 -239 -375 -247
-375 -2 0 44 75 104 168 429 668 787 1363 1068 2076 41 103 72 195 69 203 -3
8 -2 12 3 9 10 -6 96 229 190 516 70 217 175 578 169 584 -2 2 -26 -74 -53
-169 -26 -94 -52 -179 -57 -187 -12 -19 -11 -16 51 200 230 808 369 1578 456
2525 42 456 61 1146 46 1644 -12 382 -34 785 -47 828 -3 11 -16 24 -27 27
-183 52 -973 242 -1337 321 -299 65 -334 72 -455 96 -66 13 -122 26 -125 29
-3 3 -16 6 -30 7 -60 6 -70 8 -70 16 0 5 -9 6 -20 2 -10 -3 -29 -1 -40 5 -11
6 -35 12 -53 14 -18 2 -50 8 -72 14 -22 6 -49 11 -60 11 -11 0 -40 5 -64 11
-24 6 -50 9 -56 6 -7 -2 -17 0 -22 5 -5 5 -29 11 -54 13 -24 2 -51 6 -59 10
-18 6 -460 76 -670 105 -1040 146 -2130 205 -3099 170z m5788 -6128 c-7 -23
-14 -39 -16 -37 -3 2 1 23 8 45 7 23 14 39 16 37 3 -2 -1 -23 -8 -45z m-39
-118 c-11 -17 -11 -17 -6 0 3 10 6 24 7 30 0 9 2 9 5 0 3 -7 0 -20 -6 -30z
m-21 -72 c-7 -23 -14 -39 -16 -37 -3 2 1 23 8 45 7 23 14 39 16 37 3 -2 -1
-23 -8 -45z m-28 -82 c-5 -13 -10 -19 -10 -12 -1 15 10 45 15 40 3 -2 0 -15
-5 -28z m-22 -68 c-6 -18 -13 -30 -15 -28 -2 2 1 18 7 36 6 18 13 30 15 28 2
-2 -1 -18 -7 -36z m-1429 -2895 c0 -2 -8 -10 -17 -17 -16 -13 -17 -12 -4 4 13
16 21 21 21 13z"/>
<path d="M11141 7894 c0 -11 3 -14 6 -6 3 7 2 16 -1 19 -3 4 -6 -2 -5 -13z"/>
<path d="M11121 7794 c0 -11 3 -14 6 -6 3 7 2 16 -1 19 -3 4 -6 -2 -5 -13z"/>
<path d="M11092 7650 c0 -14 2 -19 5 -12 2 6 2 18 0 25 -3 6 -5 1 -5 -13z"/>
<path d="M11081 7604 c0 -11 3 -14 6 -6 3 7 2 16 -1 19 -3 4 -6 -2 -5 -13z"/>
<path d="M11066 7549 c-8 -42 0 -50 9 -9 4 17 5 34 2 36 -2 3 -7 -10 -11 -27z"/>
<path d="M11051 7474 c0 -11 3 -14 6 -6 3 7 2 16 -1 19 -3 4 -6 -2 -5 -13z"/>
<path d="M11041 7434 c0 -11 3 -14 6 -6 3 7 2 16 -1 19 -3 4 -6 -2 -5 -13z"/>
<path d="M11026 7379 c-8 -42 0 -50 9 -9 4 17 5 34 2 36 -2 3 -7 -10 -11 -27z"/>
<path d="M11011 7314 c0 -11 3 -14 6 -6 3 7 2 16 -1 19 -3 4 -6 -2 -5 -13z"/>
<path d="M11001 7274 c0 -11 3 -14 6 -6 3 7 2 16 -1 19 -3 4 -6 -2 -5 -13z"/>
<path d="M10976 7184 c-9 -37 -15 -68 -13 -70 2 -2 12 25 22 61 9 36 16 68 13
70 -2 2 -12 -25 -22 -61z"/>
<path d="M10951 7084 c0 -11 3 -14 6 -6 3 7 2 16 -1 19 -3 4 -6 -2 -5 -13z"/>
<path d="M9970 4530 c-11 -22 -18 -40 -15 -40 2 0 14 18 25 40 11 22 18 40 15
40 -2 0 -14 -18 -25 -40z"/>
<path d="M9900 4400 c-6 -11 -8 -20 -6 -20 3 0 10 9 16 20 6 11 8 20 6 20 -3
0 -10 -9 -16 -20z"/>
<path d="M9855 4320 c-9 -16 -13 -30 -11 -30 3 0 12 14 21 30 9 17 13 30 11
30 -3 0 -12 -13 -21 -30z"/>
<path d="M9805 4230 c-9 -16 -13 -30 -11 -30 3 0 12 14 21 30 9 17 13 30 11
30 -3 0 -12 -13 -21 -30z"/>
<path d="M9765 4160 c-9 -16 -13 -30 -11 -30 3 0 12 14 21 30 9 17 13 30 11
30 -3 0 -12 -13 -21 -30z"/>
</g>
</svg>
